<svg id="Capa_1" enable-background="new 0 0 512 512" height="512" viewBox="0 0 512 512" width="512" xmlns="http://www.w3.org/2000/svg"><g><g><path d="m409.593 502.85c-4.143 0-7.5-3.358-7.5-7.5v-68.082l-45.927-45.926c-2.929-2.929-2.929-7.678 0-10.606 2.93-2.929 7.678-2.929 10.607 0l48.123 48.123c1.406 1.406 2.196 3.314 2.196 5.303v71.188c.001 4.142-3.357 7.5-7.499 7.5z" fill="#c5d3dd"/></g><g><path d="m102.408 502.85c-4.142 0-7.5-3.358-7.5-7.5v-71.188c0-1.989.79-3.897 2.197-5.303l48.021-48.021c2.929-2.929 7.678-2.929 10.606 0 2.929 2.929 2.929 7.678 0 10.606l-45.824 45.824v68.082c0 4.142-3.358 7.5-7.5 7.5z" fill="#c5d3dd"/></g><g><path d="m256 502.85c-4.142 0-7.5-3.358-7.5-7.5v-81.663c0-4.142 3.358-7.5 7.5-7.5 4.143 0 7.5 3.358 7.5 7.5v81.663c0 4.142-3.357 7.5-7.5 7.5z" fill="#c5d3dd"/></g><g><path d="m424.585 292.573v-53.223l-49.378-6.017c-15.88-50.728-63.314-87.641-119.208-87.641-55.895 0-103.328 36.913-119.208 87.641l-49.377 6.017v53.224c0 5.26 3.926 9.694 9.148 10.33l40.23 4.903c2.254 7.2 5.149 14.118 8.609 20.695l-25.004 31.944c-3.242 4.142-2.884 10.053.836 13.773l31.119 31.119c3.72 3.72 9.63 4.079 13.773.836l31.944-25.004c6.577 3.459 13.495 6.355 20.695 8.609l4.902 40.23c.636 5.222 5.07 9.148 10.33 9.148h44.008c5.26 0 9.694-3.926 10.33-9.148l4.902-40.23c7.2-2.254 14.118-5.149 20.695-8.609l31.944 25.004c4.142 3.242 10.053 2.884 13.773-.836l31.119-31.119c3.72-3.72 4.079-9.63.836-13.773l-25.004-31.944c3.459-6.577 6.355-13.495 8.609-20.695l40.23-4.903c5.222-.637 9.147-5.07 9.147-10.331zm-168.585-84.443c34.484 0 62.439 27.955 62.439 62.439s-27.955 62.439-62.439 62.439-62.439-27.955-62.439-62.439 27.955-62.439 62.439-62.439z" fill="#7a6d79"/></g><g><path d="m256 145.691c-55.895 0-103.328 36.913-119.208 87.641l-49.377 6.017v53.224c0 2.747 1.077 5.261 2.843 7.134h110.52c-4.6-8.7-7.217-18.612-7.217-29.138 0-34.484 27.955-62.439 62.439-62.439s62.439 27.955 62.439 62.439c0 10.527-2.616 20.438-7.217 29.138h110.52c1.766-1.873 2.843-4.387 2.843-7.134v-53.223l-49.378-6.017c-15.879-50.729-63.313-87.642-119.207-87.642z" fill="#685e68"/></g><g><path d="m440.017 104.852c-8.348-24.657-31.662-42.413-59.138-42.413-5.388 0-10.616.682-15.603 1.965-21.3-38.405-62.249-64.404-109.276-64.404s-87.976 25.999-109.275 64.404c-4.987-1.283-10.215-1.965-15.603-1.965-27.477 0-50.791 17.756-59.138 42.413-40.619 5.527-71.928 40.33-71.928 82.465 0 45.979 37.273 83.252 83.252 83.252h345.385c45.979 0 83.252-37.273 83.252-83.252 0-42.135-31.31-76.937-71.928-82.465z" fill="#e8edf2"/></g><g><path d="m440.017 104.852c-8.348-24.657-31.662-42.413-59.138-42.413-5.388 0-10.616.682-15.603 1.965-21.3-38.405-62.249-64.404-109.276-64.404s-87.976 25.999-109.275 64.404c-4.987-1.283-10.215-1.965-15.603-1.965-27.477 0-50.791 17.756-59.138 42.413-40.619 5.527-71.928 40.33-71.928 82.465 0 45.979 37.273 83.252 83.252 83.252h345.385c45.979 0 83.252-37.273 83.252-83.252 0-42.135-31.31-76.937-71.928-82.465z" fill="#e8edf2"/></g><g><path d="m440.017 104.852c-6.48-19.142-21.983-34.118-41.447-39.863 3.168 14.751 4.851 30.054 4.851 45.752 0 63.257-27.088 120.182-70.288 159.828h95.56c45.979 0 83.252-37.273 83.252-83.252 0-42.135-31.31-76.937-71.928-82.465z" fill="#d9e7ec"/></g><g><path d="m352.294 231.024h-192.588c-11.495 0-20.813-9.318-20.813-20.813v-87.415c0-11.495 9.318-20.813 20.813-20.813h192.589c11.495 0 20.813 9.318 20.813 20.813v87.415c0 11.495-9.319 20.813-20.814 20.813z" fill="#ffd15b"/></g><g><path d="m352.294 101.984h-31.219c11.495 0 20.813 9.318 20.813 20.813v87.415c0 11.495-9.318 20.813-20.813 20.813h31.219c11.495 0 20.813-9.318 20.813-20.813v-87.415c0-11.495-9.318-20.813-20.813-20.813z" fill="#ffc344"/></g><g><circle cx="409.592" cy="495.35" fill="#ffd15b" r="16.65"/></g><g><circle cx="102.408" cy="495.35" fill="#ffd15b" r="16.65"/></g><g><circle cx="256" cy="495.35" fill="#ffd15b" r="16.65"/></g><g fill="#7a6d79"><path d="m212.293 131.491c-.026-.069-.053-.138-.081-.206-1.396-3.392-4.665-5.582-8.332-5.582-.003 0-.006 0-.008 0-3.67.003-6.94 2.2-8.33 5.597-.023.057-.046.114-.068.171l-25.009 65.664c-1.474 3.871.468 8.204 4.339 9.678 3.874 1.476 8.204-.469 9.678-4.339l4.389-11.523h29.829l4.34 11.501c1.134 3.003 3.987 4.854 7.019 4.854.88 0 1.775-.156 2.646-.485 3.875-1.462 5.832-5.79 4.369-9.665zm-17.709 44.46 9.27-24.339 9.185 24.339z"/><path d="m334.526 125.703c-4.143 0-7.5 3.358-7.5 7.5v66.602c0 4.142 3.357 7.5 7.5 7.5s7.5-3.358 7.5-7.5v-66.602c0-4.142-3.357-7.5-7.5-7.5z"/><path d="m282.062 125.703h-18.545c-4.143 0-7.5 3.358-7.5 7.5v66.602c0 4.142 3.357 7.5 7.5 7.5s7.5-3.358 7.5-7.5v-21.47c3.953-.021 8.505-.041 11.045-.041 14.702 0 26.663-11.796 26.663-26.295.001-14.5-11.96-26.296-26.663-26.296zm0 37.59c-2.541 0-7.085.02-11.045.041v-22.631h11.045c6.322 0 11.663 5.172 11.663 11.295s-5.34 11.295-11.663 11.295z"/></g></g></svg>