<svg id="Capa_1" enable-background="new 0 0 512 512" height="512" viewBox="0 0 512 512" width="512" xmlns="http://www.w3.org/2000/svg"><g><g><g><path d="m482 416.071h-452c-16.569 0-30-13.431-30-30v-260.142c0-16.569 13.431-30 30-30h452c16.569 0 30 13.431 30 30v260.141c0 16.569-13.431 30.001-30 30.001z" fill="#b3d8fb"/></g><g><path d="m481.928 95.929h-18.853v241.144c0 16.608-13.464 30.072-30.072 30.072h-433.003v18.853c0 16.608 13.464 30.072 30.072 30.072h451.856c16.608 0 30.072-13.464 30.072-30.072v-259.997c0-16.608-13.464-30.072-30.072-30.072z" fill="#62b4fd"/></g><g><path d="m481.928 95.929h-451.856c-16.608 0-30.072 13.464-30.072 30.072v46.982h512v-46.982c0-16.608-13.464-30.072-30.072-30.072z" fill="#27a2fb"/></g><g><path d="m481.928 95.929h-18.853v77.054h48.925v-46.982c0-16.608-13.464-30.072-30.072-30.072z" fill="#0a81f9"/></g><g><g><circle cx="375.181" cy="136.461" fill="#c1e2ff" r="12.342"/></g><g><circle cx="416.906" cy="136.461" fill="#c1e2ff" r="12.342"/></g><g><circle cx="458.631" cy="136.461" fill="#c1e2ff" r="12.342"/></g></g></g><g><path d="m377.235 248.492c-1.372-.354-2.323-1.599-2.33-3.015-.102-20.412-13.42-39.224-33.994-45.367-14.748-4.404-29.944-1.313-41.525 7.055-1.352.977-3.267.075-3.33-1.591-1.2-31.688-23.536-59.83-55.943-67.025-36.153-8.027-71.971 12.876-83.331 47.311-.41 1.242-1.51 2.128-2.817 2.2-12.089.668-23.613 7.224-30.119 18.492-6.741 11.677-6.408 25.49-.341 36.494.75 1.361.425 3.06-.802 4.014-14.966 11.636-24.567 29.844-24.436 50.3.221 34.527 29.551 62.764 64.078 62.764h199.787c31.605 0 57.803-25.46 57.614-57.064-.157-26.265-18.17-48.29-42.511-54.568z" fill="#f0f0f3"/></g><g><g><path d="m377.235 248.492c-1.372-.354-2.323-1.599-2.33-3.015-.102-20.412-13.421-39.224-33.994-45.367-11.65-3.479-23.573-2.265-33.779 2.517 16.781 7.844 27.314 24.711 27.404 42.85.007 1.417.959 2.661 2.331 3.015 24.341 6.278 42.354 28.303 42.511 54.567.189 31.604-26.009 57.064-57.614 57.064h40.368c31.605 0 57.803-25.46 57.614-57.064-.157-26.264-18.17-48.289-42.511-54.567z" fill="#e0dde2"/></g></g><g><path d="m324.834 286.637h-147.436v-42.438c0-3.866 3.134-7 7-7h133.436c3.866 0 7 3.134 7 7z" fill="#a698a6"/></g><g><path d="m177.398 286.637h147.436v49.438h-147.436z" fill="#a698a6"/></g><g><path d="m317.834 385.513h-133.436c-3.866 0-7-3.134-7-7v-42.438h147.436v42.438c0 3.866-3.134 7-7 7z" fill="#a698a6"/></g><g><path d="m300.821 237.199v12.87c0 6.934-5.621 12.555-12.555 12.555h-110.868v24.013h147.437v-42.421c0-3.875-3.142-7.017-7.017-7.017z" fill="#8f818f"/></g><g><path d="m300.821 286.637v12.87c0 6.934-5.621 12.555-12.555 12.555h-110.868v24.013h147.437v-49.438z" fill="#8f818f"/></g><g><path d="m300.821 336.075v12.87c0 6.934-5.621 12.555-12.555 12.555h-110.868v16.996c0 3.875 3.142 7.017 7.017 7.017h133.403c3.875 0 7.017-3.142 7.017-7.017v-42.421z" fill="#8f818f"/></g><g><g><circle cx="205.531" cy="311.265" fill="#fce25c" r="6.67"/></g><g><circle cx="230.087" cy="311.265" fill="#fce25c" r="6.67"/></g></g><g><g><circle cx="205.531" cy="261.95" fill="#fce25c" r="6.67"/></g><g><circle cx="230.087" cy="261.95" fill="#fce25c" r="6.67"/></g></g><g><g><circle cx="205.531" cy="360.794" fill="#fce25c" r="6.67"/></g><g><circle cx="230.087" cy="360.794" fill="#fce25c" r="6.67"/></g></g></g></svg>