<svg id="Capa_1" enable-background="new 0 0 512 512" height="512" viewBox="0 0 512 512" width="512" xmlns="http://www.w3.org/2000/svg"><g><g><path d="m330.943 337.329-22.154 22.154h-131.055c-4.282 0-7.754-3.472-7.754-7.754v-61.321l160.964-21.895v68.816z" fill="#596d76"/><path d="m308.789 290.408v69.075h25.477c4.282 0 7.754-3.472 7.754-7.754v-61.321l-16.616-10.818z" fill="#475a61"/><g><path d="m221.592 333.383h-17.204c-4.589 0-8.308-3.72-8.308-8.308s3.719-8.308 8.308-8.308h17.204c4.589 0 8.308 3.72 8.308 8.308-.001 4.589-3.72 8.308-8.308 8.308z" fill="#475a61"/></g><g><path d="m273.204 333.124h-17.204c-4.589 0-8.308-3.72-8.308-8.308s3.719-8.308 8.308-8.308h17.204c4.589 0 8.308 3.72 8.308 8.308s-3.719 8.308-8.308 8.308z" fill="#475a61"/></g><path d="m330.943 243.487-160.963-21.895v-61.322c0-4.282 3.472-7.754 7.754-7.754h131.055l22.154 22.154z" fill="#596d76"/><path d="m330.943 279.331-22.154 11.077h-138.809v-68.816h138.809l22.154 11.077z" fill="#304547"/><path d="m308.789 152.516v69.075l16.616 10.818 16.616-10.818v-61.321c0-4.282-3.472-7.754-7.754-7.754z" fill="#475a61"/><path d="m308.789 221.592h33.231v68.816h-33.231z" fill="#203435"/><g><path d="m221.592 195.492h-17.204c-4.589 0-8.308-3.72-8.308-8.308s3.719-8.308 8.308-8.308h17.204c4.589 0 8.308 3.72 8.308 8.308-.001 4.588-3.72 8.308-8.308 8.308z" fill="#475a61"/></g><g><path d="m273.204 195.232h-17.204c-4.589 0-8.308-3.72-8.308-8.308s3.719-8.308 8.308-8.308h17.204c4.589 0 8.308 3.72 8.308 8.308 0 4.589-3.719 8.308-8.308 8.308z" fill="#475a61"/></g><g><path d="m221.592 264.437h-17.204c-4.589 0-8.308-3.72-8.308-8.308s3.719-8.308 8.308-8.308h17.204c4.589 0 8.308 3.72 8.308 8.308-.001 4.588-3.72 8.308-8.308 8.308z" fill="#203435"/></g><g><path d="m273.204 264.178h-17.204c-4.589 0-8.308-3.72-8.308-8.308s3.719-8.308 8.308-8.308h17.204c4.589 0 8.308 3.72 8.308 8.308s-3.719 8.308-8.308 8.308z" fill="#203435"/></g><g fill="#ffb332"><path d="m307.612 195.232c-4.588 0-8.308-3.72-8.308-8.308 0-4.588 3.72-8.308 8.308-8.308 4.588 0 8.308 3.719 8.308 8.308 0 4.589-3.719 8.308-8.308 8.308z"/><path d="m307.612 333.124c-4.588 0-8.308-3.72-8.308-8.308 0-4.588 3.72-8.308 8.308-8.308 4.588 0 8.308 3.72 8.308 8.308 0 4.588-3.719 8.308-8.308 8.308z"/><path d="m307.612 264.178c-4.588 0-8.308-3.72-8.308-8.308 0-4.588 3.72-8.308 8.308-8.308 4.588 0 8.308 3.719 8.308 8.308 0 4.588-3.719 8.308-8.308 8.308z"/></g></g><g><path d="m509.709 288.331-23.98-41.535c-4.639-8.03-15.273-10.909-23.34-6.254l-41.534 23.98c-8.172 4.719-10.972 15.169-6.254 23.341s15.167 10.972 23.34 6.254l5.693-3.287c-16.42 88.819-94.454 156.304-187.954 156.304-84.288 0-156.008-54.843-181.351-130.718-2.865-8.578-11.906-13.446-20.641-11.106-9.514 2.549-14.919 12.59-11.806 21.935 29.62 88.926 113.167 153.204 211.848 154.041 109.302.927 202.036-77.771 222.873-181.284.104-.26.158-.397.158-.397l3.355 5.811c4.718 8.171 15.168 10.973 23.34 6.254 8.17-4.716 10.97-15.166 6.253-23.339z" fill="#ff4155"/><path d="m49.612 268.954 41.534-23.98c8.172-4.719 10.972-15.169 6.254-23.34-4.718-8.173-15.169-10.971-23.34-6.254l-5.811 3.355s.054-.361.149-1.029c17.785-87.104 95.001-152.84 187.282-152.84 82.826 0 153.516 52.957 179.99 126.79 3.002 8.371 11.824 13.125 20.414 10.824l.273-.073c9.557-2.561 14.926-12.734 11.604-22.053-30.867-86.613-113.234-148.78-210.24-149.641-108.831-.966-200.966 76.181-222.559 179.04l-3.276-5.675c-4.719-8.172-15.168-10.972-23.34-6.254s-10.972 15.168-6.255 23.34l23.98 41.535c4.659 8.066 15.308 10.89 23.341 6.255z" fill="#9bd8f9"/></g></g></svg>